<?xml version="1.0" encoding="UTF-8"?>
<!DOCTYPE svg PUBLIC "-//W3C//DTD SVG 1.1//EN" "http://www.w3.org/Graphics/SVG/1.1/DTD/svg11.dtd">
<svg xmlns="http://www.w3.org/2000/svg" version="1.1" width="18px" height="14px" style="shape-rendering:geometricPrecision; text-rendering:geometricPrecision; image-rendering:optimizeQuality; fill-rule:evenodd; clip-rule:evenodd" xmlns:xlink="http://www.w3.org/1999/xlink">
<g><path style="opacity:1" fill="#139c38" d="M 9.5,0.5 C 9.5,0.833333 9.5,1.16667 9.5,1.5C 7.97306,1.42702 6.97306,2.09368 6.5,3.5C 4.60638,4.04756 2.93972,5.04756 1.5,6.5C 3.5441,8.21943 5.5441,9.8861 7.5,11.5C 7.5,11.8333 7.5,12.1667 7.5,12.5C 5.16667,12.5 2.83333,12.5 0.5,12.5C 0.5,8.5 0.5,4.5 0.5,0.5C 3.5,0.5 6.5,0.5 9.5,0.5 Z"/></g>
<g><path style="opacity:0.984" fill="#169c39" d="M 9.5,0.5 C 12.1667,0.5 14.8333,0.5 17.5,0.5C 17.5,4.5 17.5,8.5 17.5,12.5C 14.1667,12.5 10.8333,12.5 7.5,12.5C 7.5,12.1667 7.5,11.8333 7.5,11.5C 10.663,10.6785 13.3297,9.01185 15.5,6.5C 13.4559,4.78057 11.4559,3.1139 9.5,1.5C 9.5,1.16667 9.5,0.833333 9.5,0.5 Z"/></g>
<g><path style="opacity:1" fill="#d4cd17" d="M 9.5,1.5 C 11.4559,3.1139 13.4559,4.78057 15.5,6.5C 13.3297,9.01185 10.663,10.6785 7.5,11.5C 5.5441,9.8861 3.5441,8.21943 1.5,6.5C 2.93972,5.04756 4.60638,4.04756 6.5,3.5C 6.97306,2.09368 7.97306,1.42702 9.5,1.5 Z"/></g>
<g><path style="opacity:1" fill="#2f4280" d="M 6.5,3.5 C 11.1585,3.01463 12.4919,4.84796 10.5,9C 5.72816,9.81044 4.39483,7.97711 6.5,3.5 Z"/></g>
<g><path style="opacity:0.925" fill="#079d3f" d="M -0.5,-0.5 C 5.5,-0.5 11.5,-0.5 17.5,-0.5C 17.5,-0.166667 17.5,0.166667 17.5,0.5C 14.8333,0.5 12.1667,0.5 9.5,0.5C 6.5,0.5 3.5,0.5 0.5,0.5C 0.5,4.5 0.5,8.5 0.5,12.5C 2.83333,12.5 5.16667,12.5 7.5,12.5C 10.8333,12.5 14.1667,12.5 17.5,12.5C 17.5,12.8333 17.5,13.1667 17.5,13.5C 11.5,13.5 5.5,13.5 -0.5,13.5C -0.5,8.83333 -0.5,4.16667 -0.5,-0.5 Z"/></g>
</svg>
