<?xml version="1.0" encoding="UTF-8"?>
<!DOCTYPE svg PUBLIC "-//W3C//DTD SVG 1.1//EN" "http://www.w3.org/Graphics/SVG/1.1/DTD/svg11.dtd">
<svg xmlns="http://www.w3.org/2000/svg" version="1.1" width="18px" height="14px" style="shape-rendering:geometricPrecision; text-rendering:geometricPrecision; image-rendering:optimizeQuality; fill-rule:evenodd; clip-rule:evenodd" xmlns:xlink="http://www.w3.org/1999/xlink">
<g><path style="opacity:1" fill="#f0ad9e" d="M 7.5,-0.5 C 10.8333,-0.5 14.1667,-0.5 17.5,-0.5C 17.5,0.166667 17.5,0.833333 17.5,1.5C 14.1667,1.5 10.8333,1.5 7.5,1.5C 7.5,0.833333 7.5,0.166667 7.5,-0.5 Z"/></g>
<g><path style="opacity:1" fill="#002551" d="M -0.5,-0.5 C 0.5,-0.5 1.5,-0.5 2.5,-0.5C 2.08247,0.221579 1.4158,0.721579 0.5,1C 2.99134,1.62595 2.99134,2.45928 0.5,3.5C 2.99134,4.54072 2.99134,5.37405 0.5,6C 1.4158,6.27842 2.08247,6.77842 2.5,7.5C 1.5,7.5 0.5,7.5 -0.5,7.5C -0.5,4.83333 -0.5,2.16667 -0.5,-0.5 Z"/></g>
<g><path style="opacity:1" fill="#3a4e72" d="M 2.5,-0.5 C 2.83333,-0.5 3.16667,-0.5 3.5,-0.5C 4.26253,0.26791 5.26253,0.76791 6.5,1C 4.00866,1.62595 4.00866,2.45928 6.5,3.5C 4.00866,4.54072 4.00866,5.37405 6.5,6C 5.5842,6.27842 4.91753,6.77842 4.5,7.5C 3.83333,7.5 3.16667,7.5 2.5,7.5C 2.08247,6.77842 1.4158,6.27842 0.5,6C 2.99134,5.37405 2.99134,4.54072 0.5,3.5C 2.99134,2.45928 2.99134,1.62595 0.5,1C 1.4158,0.721579 2.08247,0.221579 2.5,-0.5 Z"/></g>
<g><path style="opacity:1" fill="#e48877" d="M 7.5,1.5 C 10.8333,1.5 14.1667,1.5 17.5,1.5C 17.5,5.5 17.5,9.5 17.5,13.5C 11.5,13.5 5.5,13.5 -0.5,13.5C -0.5,11.5 -0.5,9.5 -0.5,7.5C 0.5,7.5 1.5,7.5 2.5,7.5C 3.16667,7.5 3.83333,7.5 4.5,7.5C 5.5,7.5 6.5,7.5 7.5,7.5C 7.5,5.5 7.5,3.5 7.5,1.5 Z"/></g>
<g><path style="opacity:1" fill="#112d58" d="M 3.5,-0.5 C 4.83333,-0.5 6.16667,-0.5 7.5,-0.5C 7.5,0.166667 7.5,0.833333 7.5,1.5C 7.5,3.5 7.5,5.5 7.5,7.5C 6.5,7.5 5.5,7.5 4.5,7.5C 4.91753,6.77842 5.5842,6.27842 6.5,6C 4.00866,5.37405 4.00866,4.54072 6.5,3.5C 4.00866,2.45928 4.00866,1.62595 6.5,1C 5.26253,0.76791 4.26253,0.26791 3.5,-0.5 Z"/></g>
</svg>
